<?xml version="1.0" standalone="no"?>
<!DOCTYPE svg PUBLIC "-//W3C//DTD SVG 20010904//EN"
 "http://www.w3.org/TR/2001/REC-SVG-20010904/DTD/svg10.dtd">
<svg version="1.0" xmlns="http://www.w3.org/2000/svg"
 width="2520.000000pt" height="3064.000000pt" viewBox="0 0 2520.000000 3064.000000"
 preserveAspectRatio="xMidYMid meet">

<g transform="translate(0.000000,3064.000000) scale(0.100000,-0.100000)"
fill="#000000" stroke="none">
<path d="M12250 29538 c-57 -30 -130 -100 -130 -123 0 -7 -7 -19 -16 -26 -16
-13 -43 -51 -89 -124 -54 -86 -67 -104 -79 -108 -7 -3 -17 -18 -20 -33 -7 -28
-35 -69 -72 -107 -12 -12 -29 -39 -37 -60 -9 -20 -20 -37 -25 -37 -5 0 -14
-12 -21 -27 -7 -15 -21 -33 -32 -41 -10 -7 -19 -19 -19 -27 0 -7 -11 -27 -25
-43 -14 -17 -25 -34 -25 -40 0 -5 -7 -16 -16 -23 -15 -12 -33 -36 -86 -118
-25 -37 -49 -71 -78 -106 -26 -31 -38 -49 -68 -99 -9 -16 -27 -38 -39 -49 -13
-11 -23 -26 -23 -32 0 -6 -10 -21 -22 -32 -13 -11 -32 -35 -43 -54 -11 -18
-25 -42 -32 -52 -6 -11 -23 -31 -37 -44 -14 -13 -26 -30 -26 -37 0 -7 -9 -21
-20 -31 -11 -10 -20 -24 -20 -31 0 -7 -12 -27 -27 -44 -51 -55 -74 -85 -106
-135 -17 -27 -53 -75 -79 -106 -26 -31 -48 -61 -48 -66 0 -9 -29 -50 -81 -113
-46 -56 -79 -103 -79 -113 0 -5 -10 -20 -22 -33 -49 -50 -128 -154 -128 -168
0 -6 -21 -33 -47 -61 -26 -27 -54 -62 -62 -76 -35 -59 -70 -106 -110 -145 -22
-23 -41 -46 -41 -51 0 -6 -13 -28 -30 -49 -16 -22 -37 -50 -47 -63 -10 -13
-29 -37 -43 -55 -26 -31 -41 -52 -84 -117 -13 -19 -40 -52 -59 -73 -46 -48
-61 -69 -132 -184 -11 -18 -27 -34 -36 -37 -9 -3 -21 -17 -27 -30 -6 -14 -16
-25 -22 -25 -5 0 -19 -17 -30 -37 -29 -53 -69 -106 -86 -116 -8 -4 -14 -12
-14 -18 0 -5 -15 -25 -33 -43 -37 -37 -127 -153 -127 -163 0 -4 -9 -16 -20
-28 -39 -40 -85 -93 -103 -116 -9 -13 -33 -44 -53 -69 -19 -25 -45 -58 -57
-73 -12 -15 -33 -41 -47 -56 -66 -76 -90 -105 -116 -144 -16 -23 -37 -48 -46
-55 -10 -7 -18 -18 -18 -24 0 -5 -12 -22 -27 -37 -36 -35 -105 -118 -117 -139
-12 -22 -100 -126 -150 -177 -21 -22 -51 -57 -65 -79 -14 -21 -33 -49 -42 -62
-8 -13 -35 -46 -60 -75 -72 -84 -85 -100 -148 -179 -66 -82 -92 -113 -133
-163 -15 -17 -33 -39 -40 -47 -7 -8 -35 -44 -62 -80 -26 -36 -54 -69 -62 -73
-8 -4 -14 -12 -14 -17 0 -6 -18 -29 -40 -51 -22 -23 -61 -69 -86 -103 -59 -78
-122 -153 -156 -185 -16 -14 -28 -30 -28 -35 0 -5 -10 -19 -22 -31 -13 -13
-39 -45 -58 -71 -19 -27 -44 -59 -55 -71 -43 -47 -55 -60 -114 -131 -33 -41
-61 -77 -61 -81 0 -5 -12 -21 -27 -38 -16 -16 -48 -53 -73 -82 -25 -30 -57
-67 -72 -84 -16 -16 -28 -33 -28 -37 0 -9 -49 -72 -105 -135 -24 -27 -69 -81
-99 -120 -79 -101 -97 -123 -131 -160 -36 -40 -73 -84 -100 -121 -11 -14 -35
-43 -52 -64 -18 -21 -33 -41 -33 -45 0 -4 -12 -19 -27 -34 -43 -41 -113 -123
-113 -131 0 -4 -7 -14 -17 -21 -9 -8 -24 -26 -33 -41 -16 -27 -76 -100 -135
-164 -16 -18 -46 -54 -65 -80 -19 -27 -42 -56 -50 -66 -8 -10 -26 -32 -40 -48
-14 -17 -46 -54 -72 -83 -27 -28 -48 -54 -48 -58 0 -6 -26 -41 -90 -119 -11
-14 -37 -43 -57 -65 -20 -22 -56 -67 -80 -100 -62 -84 -81 -108 -136 -168 -26
-28 -64 -77 -85 -107 -20 -30 -45 -65 -57 -77 -11 -13 -31 -37 -45 -53 -14
-17 -34 -41 -45 -53 -11 -12 -25 -31 -31 -43 -6 -12 -19 -30 -28 -40 -36 -40
-182 -225 -206 -259 -14 -20 -36 -50 -50 -66 -48 -55 -71 -84 -100 -124 -40
-56 -71 -93 -101 -124 -14 -14 -29 -33 -32 -41 -4 -8 -23 -35 -42 -60 -20 -25
-44 -59 -56 -77 -11 -17 -26 -34 -34 -37 -8 -3 -15 -12 -15 -20 0 -9 -11 -23
-25 -32 -14 -9 -25 -21 -25 -28 -1 -6 -14 -27 -30 -46 -17 -19 -30 -38 -30
-43 0 -6 -10 -20 -23 -33 -42 -44 -109 -130 -127 -164 -7 -14 -21 -31 -32 -38
-10 -7 -18 -20 -18 -27 0 -8 -11 -22 -25 -31 -14 -9 -25 -22 -25 -29 0 -12
-22 -43 -105 -149 -27 -35 -59 -78 -70 -97 -11 -18 -25 -41 -31 -52 -6 -10
-21 -25 -33 -33 -11 -8 -21 -21 -21 -28 0 -7 -9 -21 -20 -31 -11 -10 -22 -27
-26 -39 -6 -20 -40 -64 -83 -111 -10 -11 -22 -30 -25 -41 -4 -12 -15 -29 -26
-39 -11 -10 -20 -23 -20 -30 0 -6 -13 -24 -30 -38 -16 -15 -30 -33 -30 -40 0
-13 -50 -90 -76 -116 -21 -23 -74 -104 -74 -116 0 -5 -9 -18 -20 -30 -27 -26
-80 -107 -80 -121 0 -6 -7 -17 -16 -25 -20 -17 -84 -113 -84 -127 0 -6 -14
-25 -30 -42 -17 -17 -30 -38 -30 -46 0 -9 -11 -29 -25 -46 -14 -16 -25 -36
-25 -43 0 -8 -9 -19 -19 -25 -11 -5 -22 -23 -26 -39 -3 -16 -15 -37 -27 -47
-11 -11 -27 -36 -35 -56 -8 -21 -19 -38 -23 -38 -5 0 -14 -16 -20 -35 -6 -19
-16 -35 -21 -35 -5 0 -18 -20 -29 -44 -10 -24 -24 -47 -30 -51 -6 -4 -20 -26
-31 -49 -33 -68 -51 -100 -69 -121 -10 -11 -20 -32 -23 -46 -4 -14 -18 -38
-32 -53 -14 -15 -25 -37 -25 -50 0 -12 -11 -33 -24 -46 -14 -12 -28 -35 -31
-51 -4 -15 -12 -32 -19 -38 -8 -6 -21 -31 -31 -56 -9 -25 -20 -45 -25 -45 -5
0 -14 -17 -20 -37 -7 -21 -19 -45 -26 -54 -8 -8 -19 -31 -26 -49 -6 -19 -22
-50 -35 -68 -13 -19 -23 -41 -23 -49 0 -8 -9 -26 -20 -40 -11 -14 -20 -31 -20
-38 0 -7 -9 -24 -20 -38 -11 -14 -27 -45 -35 -68 -9 -24 -22 -50 -29 -59 -8
-8 -19 -32 -24 -52 -6 -21 -20 -50 -31 -64 -12 -15 -21 -36 -21 -48 0 -12 -11
-37 -25 -56 -14 -19 -25 -43 -25 -55 0 -12 -11 -36 -25 -55 -14 -19 -25 -43
-25 -55 0 -12 -11 -36 -24 -53 -13 -18 -26 -50 -30 -71 -3 -21 -13 -44 -21
-51 -8 -7 -22 -36 -31 -65 -8 -30 -21 -58 -29 -65 -7 -6 -17 -30 -20 -53 -4
-23 -15 -51 -25 -62 -10 -11 -21 -38 -25 -60 -4 -22 -18 -58 -31 -81 -13 -22
-24 -54 -24 -71 0 -17 -9 -42 -20 -56 -11 -14 -24 -46 -29 -72 -5 -25 -16 -54
-25 -64 -9 -10 -21 -44 -26 -76 -5 -32 -16 -66 -25 -75 -9 -9 -20 -44 -25 -76
-5 -32 -18 -70 -29 -84 -10 -14 -22 -50 -26 -80 -4 -30 -16 -65 -26 -78 -10
-13 -21 -48 -25 -79 -4 -31 -15 -70 -24 -87 -10 -17 -21 -53 -25 -81 -3 -27
-15 -67 -25 -87 -11 -20 -22 -61 -26 -90 -3 -29 -15 -72 -25 -96 -10 -23 -21
-70 -25 -105 -3 -34 -17 -85 -30 -113 -14 -30 -24 -69 -24 -97 0 -25 -10 -70
-21 -99 -12 -29 -25 -90 -29 -136 -5 -50 -15 -94 -26 -109 -12 -19 -19 -59
-24 -133 -5 -70 -13 -119 -25 -141 -11 -22 -20 -75 -26 -154 -6 -76 -16 -138
-29 -170 -13 -35 -22 -94 -29 -200 -6 -82 -17 -180 -26 -216 -8 -39 -19 -164
-24 -300 -5 -129 -15 -250 -22 -269 -8 -24 -13 -169 -17 -470 -4 -386 -2 -460
17 -660 11 -124 24 -308 29 -410 5 -113 14 -194 21 -208 7 -13 19 -103 26
-200 8 -116 19 -190 29 -215 10 -23 19 -81 23 -150 4 -72 12 -129 24 -159 10
-26 23 -92 28 -147 5 -55 17 -113 26 -131 9 -18 21 -71 25 -119 5 -52 17 -103
29 -128 14 -28 21 -62 21 -100 0 -41 7 -72 25 -108 14 -30 25 -68 25 -94 0
-25 10 -66 24 -95 13 -28 26 -77 30 -110 4 -33 14 -69 25 -82 10 -13 22 -50
26 -81 4 -32 15 -74 26 -93 10 -19 23 -62 29 -94 5 -33 17 -67 25 -76 8 -9 18
-39 21 -66 4 -27 17 -67 30 -90 13 -22 24 -57 24 -76 0 -20 9 -46 21 -61 11
-15 24 -49 28 -77 4 -28 15 -58 24 -68 9 -10 21 -43 27 -72 6 -30 19 -63 30
-75 11 -12 20 -35 20 -52 0 -17 11 -46 24 -66 14 -20 28 -53 32 -74 3 -21 14
-47 24 -58 10 -11 21 -38 25 -59 3 -22 15 -51 26 -64 11 -14 22 -42 25 -63 4
-22 17 -50 30 -64 14 -15 24 -38 24 -54 0 -16 11 -40 25 -55 14 -15 25 -39 25
-53 0 -14 11 -38 25 -55 14 -16 25 -40 25 -52 0 -12 11 -37 25 -56 14 -19 25
-42 25 -53 0 -11 11 -32 25 -49 14 -16 25 -39 25 -50 0 -11 11 -33 25 -50 14
-16 25 -38 25 -48 0 -10 11 -31 24 -47 13 -15 26 -42 30 -59 4 -18 16 -40 26
-49 10 -9 22 -30 25 -45 3 -16 17 -40 31 -55 13 -14 24 -36 24 -49 0 -12 11
-32 24 -43 13 -12 27 -35 31 -51 3 -16 15 -38 26 -48 10 -9 19 -22 19 -29 0
-6 11 -26 25 -45 14 -19 25 -41 25 -50 0 -9 11 -27 24 -39 13 -13 27 -35 31
-49 3 -14 16 -38 28 -54 58 -74 66 -87 73 -112 3 -15 13 -30 21 -33 7 -3 24
-23 36 -45 12 -22 30 -53 39 -70 9 -17 25 -40 35 -52 25 -28 73 -100 73 -109
0 -5 22 -35 50 -68 27 -33 53 -71 56 -85 3 -13 15 -29 25 -35 11 -5 19 -15 19
-22 0 -6 9 -20 20 -32 28 -28 67 -84 85 -122 8 -18 19 -33 23 -33 11 0 115
-128 135 -165 9 -16 41 -57 72 -90 31 -33 76 -87 101 -120 24 -33 53 -69 64
-80 11 -12 20 -24 20 -28 0 -4 24 -32 52 -61 68 -69 118 -123 203 -221 114
-133 431 -457 521 -534 74 -63 167 -146 220 -196 123 -116 202 -187 226 -203
62 -41 84 -58 104 -77 80 -75 202 -175 214 -175 5 0 23 -12 40 -27 16 -16 43
-39 60 -53 17 -14 39 -33 50 -42 10 -9 33 -24 50 -33 17 -9 40 -25 51 -36 10
-10 25 -19 33 -19 8 0 16 -6 19 -13 3 -7 33 -32 68 -55 35 -23 73 -50 84 -60
11 -10 38 -29 60 -43 66 -42 88 -57 133 -89 24 -16 58 -37 77 -45 19 -7 35
-19 35 -25 0 -6 16 -18 35 -27 19 -9 35 -20 35 -24 0 -4 16 -13 35 -19 19 -6
41 -20 48 -30 7 -10 28 -25 47 -34 54 -26 94 -50 125 -74 15 -12 36 -22 46
-22 11 0 29 -11 40 -25 12 -13 34 -27 49 -30 16 -3 36 -15 46 -26 9 -10 23
-19 29 -19 7 0 28 -11 48 -24 19 -13 46 -27 58 -31 13 -4 33 -15 44 -25 11
-10 31 -21 45 -25 14 -4 34 -15 45 -25 11 -10 34 -22 50 -26 17 -4 43 -18 58
-31 16 -12 37 -23 47 -23 11 0 31 -11 46 -25 15 -14 37 -25 50 -25 13 0 35
-11 50 -25 15 -14 38 -25 52 -25 13 0 37 -11 54 -25 16 -14 40 -25 53 -25 13
0 36 -11 51 -25 15 -14 37 -25 50 -25 12 0 35 -11 51 -24 15 -13 47 -27 70
-30 22 -4 49 -16 59 -27 9 -11 34 -22 55 -25 21 -4 53 -17 71 -30 17 -13 44
-24 60 -24 15 0 36 -9 46 -20 10 -11 39 -24 64 -29 25 -4 58 -18 73 -30 16
-11 42 -21 60 -21 18 0 43 -9 57 -19 13 -11 35 -22 49 -25 13 -2 36 -7 51 -10
15 -3 34 -14 43 -23 9 -9 39 -20 66 -24 27 -4 61 -17 76 -28 14 -12 40 -21 58
-21 18 0 52 -11 77 -24 25 -13 64 -27 88 -31 24 -4 56 -16 70 -26 14 -11 50
-22 80 -25 30 -4 69 -15 85 -25 17 -10 59 -22 94 -28 35 -6 71 -17 80 -25 9
-8 49 -19 89 -25 43 -5 82 -17 92 -26 12 -11 48 -20 96 -26 42 -4 87 -15 100
-24 13 -9 61 -20 107 -26 45 -6 93 -17 107 -26 14 -9 61 -20 113 -24 57 -6
100 -15 120 -27 21 -13 61 -22 112 -26 44 -3 109 -15 143 -26 35 -11 85 -20
110 -20 72 -1 180 -18 213 -35 18 -10 80 -19 171 -25 79 -5 170 -16 203 -25
35 -9 138 -20 255 -25 107 -5 238 -17 290 -27 84 -16 164 -18 680 -18 526 0
594 2 670 18 54 12 165 21 303 27 160 7 239 15 295 29 42 11 128 23 191 26 68
4 129 13 150 22 20 8 92 21 161 28 69 7 139 20 155 29 17 8 72 18 125 22 63 4
108 13 134 25 23 12 74 23 127 28 54 5 98 15 114 25 14 9 61 21 105 26 44 5
90 16 103 25 13 8 59 20 102 25 45 6 86 17 96 26 9 8 50 20 90 25 44 7 83 18
97 30 17 13 40 19 72 19 30 0 63 8 91 23 24 13 64 27 89 31 25 4 56 14 69 23
13 8 53 21 88 29 35 7 70 20 79 29 15 15 25 18 93 29 19 4 43 13 52 22 10 9
40 19 66 21 28 3 57 14 70 25 13 12 42 23 70 26 30 3 59 14 76 28 16 13 41 24
56 24 15 0 42 11 61 25 19 14 47 25 66 25 17 0 43 10 58 21 15 12 46 26 68 31
22 5 51 17 64 27 13 10 41 22 61 26 21 3 47 15 59 26 12 11 39 22 60 26 21 3
44 11 49 18 15 18 51 35 74 35 11 0 28 9 38 19 10 10 35 24 55 29 21 6 50 20
64 31 15 12 36 21 46 21 11 0 33 11 50 25 16 14 39 25 50 25 11 0 33 11 50 25
16 14 38 25 48 25 11 0 31 11 45 24 14 13 41 27 60 30 19 4 39 15 45 26 5 10
24 21 42 25 18 4 41 15 52 24 19 17 75 48 139 77 20 9 37 20 37 24 0 4 15 13
33 21 17 7 45 23 60 36 16 13 37 23 48 23 10 0 29 11 41 25 12 14 27 25 34 25
7 0 25 10 41 23 15 12 40 28 56 35 15 6 27 16 27 21 0 5 13 14 29 21 16 6 37
20 47 31 9 10 25 19 35 19 10 0 32 12 48 28 34 31 114 82 129 82 6 0 15 8 21
17 9 18 55 48 119 78 17 8 32 20 32 25 0 5 28 27 63 49 62 39 90 61 147 113
17 16 35 28 40 28 5 0 15 6 22 14 8 7 25 19 40 27 14 8 48 33 75 56 26 24 84
70 128 103 44 33 103 80 130 105 28 25 68 61 90 81 22 20 56 48 75 62 19 15
42 33 51 42 9 8 43 38 75 65 150 128 801 781 889 890 52 65 139 170 158 190
10 11 45 49 78 85 85 92 85 91 103 128 9 17 21 32 26 32 5 0 11 8 14 18 5 15
73 94 136 157 11 12 20 26 20 31 0 11 32 56 80 114 51 62 70 89 70 98 0 9 30
49 90 120 11 13 20 30 20 38 0 8 11 24 25 36 14 12 25 28 25 35 0 7 11 23 25
35 14 12 25 27 25 33 0 7 13 29 30 50 16 21 30 44 30 51 0 7 8 18 19 23 10 6
22 23 25 38 4 14 17 39 29 55 58 74 66 86 72 110 4 15 18 36 31 49 13 12 24
30 24 39 0 10 10 30 22 45 25 32 48 72 73 125 9 19 25 44 35 55 10 11 21 35
25 53 4 18 15 36 24 42 10 5 21 23 25 41 3 17 17 44 31 61 14 16 25 38 25 49
0 10 9 27 20 37 11 9 25 34 31 56 6 21 19 48 30 59 10 11 19 28 19 38 0 9 9
28 21 43 11 14 25 43 31 64 5 20 18 46 28 57 10 11 21 37 24 58 4 21 14 41 22
44 8 3 19 25 25 49 6 23 20 50 30 60 10 9 19 30 19 45 0 15 11 40 24 56 13 15
27 44 31 63 4 19 16 46 26 59 10 12 21 39 25 60 3 20 14 48 24 62 10 15 22 44
26 65 3 22 15 48 25 60 10 11 23 43 29 72 5 29 18 64 29 80 10 15 22 47 25 71
4 24 16 55 26 69 11 13 20 39 20 56 0 17 11 49 25 71 13 22 25 55 25 74 0 19
11 53 24 75 13 23 26 61 30 86 4 24 15 58 25 75 10 16 21 52 25 79 3 27 15 63
25 80 10 17 22 56 26 86 4 30 16 72 26 92 11 20 23 66 28 101 5 35 17 79 26
96 9 18 20 65 24 105 5 40 16 85 26 100 10 15 21 59 26 105 4 46 15 90 25 106
11 16 20 61 26 121 5 60 16 110 28 134 13 25 20 59 20 93 0 63 18 167 32 184
5 7 14 61 19 120 5 59 19 137 29 173 13 42 23 119 29 215 5 83 16 177 25 210
9 35 20 149 26 275 6 118 17 247 26 285 11 54 16 178 21 555 6 475 -5 819 -27
915 -5 22 -14 128 -20 235 -7 120 -18 226 -30 275 -10 44 -22 132 -25 195 -4
68 -14 138 -25 170 -10 30 -21 100 -25 155 -4 60 -15 118 -26 145 -10 25 -23
88 -28 142 -5 53 -17 110 -25 127 -9 16 -20 71 -25 120 -6 54 -16 100 -27 116
-10 16 -20 59 -25 111 -5 57 -13 92 -24 104 -11 12 -20 48 -26 96 -4 42 -16
88 -24 101 -9 14 -21 55 -27 91 -5 37 -17 74 -24 83 -8 9 -20 48 -25 85 -6 38
-19 83 -29 99 -10 17 -21 55 -25 85 -4 30 -16 66 -27 80 -11 15 -23 52 -27 83
-4 31 -15 65 -25 76 -9 10 -20 41 -25 68 -4 28 -17 65 -28 84 -11 19 -23 53
-26 76 -3 23 -14 54 -26 69 -12 15 -21 40 -21 56 0 16 -11 48 -24 71 -13 23
-27 59 -31 81 -3 21 -15 50 -25 65 -10 14 -21 42 -24 62 -4 21 -15 48 -25 61
-11 13 -23 41 -26 62 -4 20 -14 44 -22 52 -8 8 -21 37 -28 65 -8 28 -20 58
-29 68 -8 9 -17 33 -21 53 -4 20 -18 51 -31 69 -13 18 -24 45 -24 59 0 15 -11
39 -25 54 -14 15 -25 37 -25 50 0 12 -11 37 -25 56 -14 19 -25 45 -25 58 0 13
-11 37 -25 54 -14 16 -25 37 -25 47 0 9 -11 32 -25 51 -14 19 -25 41 -25 50 0
8 -11 31 -24 50 -13 19 -26 49 -30 66 -4 18 -16 40 -26 49 -10 9 -22 30 -25
45 -3 15 -15 36 -25 45 -10 9 -22 31 -26 49 -4 17 -17 44 -30 59 -13 16 -24
39 -24 51 0 12 -11 32 -25 44 -14 12 -25 31 -25 41 0 11 -11 32 -24 48 -13 15
-27 39 -31 53 -4 14 -16 36 -26 49 -11 13 -19 30 -19 37 0 7 -11 25 -25 40
-14 15 -25 35 -25 45 0 10 -11 30 -24 44 -14 15 -28 40 -31 56 -4 17 -14 33
-22 36 -8 3 -24 24 -35 47 -29 61 -51 99 -76 131 -12 15 -22 36 -22 46 0 11
-11 29 -25 40 -13 12 -27 34 -30 49 -3 16 -15 36 -26 46 -10 9 -19 23 -19 29
0 7 -7 19 -17 26 -9 8 -25 32 -35 54 -10 22 -34 60 -54 85 -19 25 -40 56 -47
70 -12 26 -31 53 -79 117 -16 20 -28 44 -28 55 0 10 -7 21 -15 25 -9 3 -25 22
-36 42 -50 89 -86 144 -121 182 -10 10 -24 34 -32 54 -8 19 -22 38 -31 41 -8
3 -15 11 -15 16 0 6 -13 26 -30 45 -16 18 -30 42 -30 52 0 9 -10 27 -22 39
-44 42 -127 157 -128 175 0 5 -12 22 -27 37 -48 50 -64 71 -76 99 -7 15 -18
33 -24 41 -7 8 -29 35 -49 60 -19 25 -42 53 -51 64 -8 10 -21 33 -29 51 -7 18
-20 35 -29 39 -8 3 -20 17 -25 31 -5 14 -14 25 -19 25 -5 0 -20 16 -33 37 -12
20 -32 50 -43 67 -11 17 -35 47 -53 66 -35 36 -75 91 -102 139 -8 14 -24 36
-35 47 -11 12 -33 38 -50 58 -16 20 -40 48 -52 62 -13 14 -23 29 -23 33 0 10
-44 67 -100 131 -79 90 -100 118 -100 128 0 6 -12 25 -27 41 -59 64 -116 131
-132 154 -46 70 -56 84 -75 105 -12 13 -33 36 -48 52 -16 15 -28 33 -28 38 0
6 -8 17 -18 24 -11 7 -25 24 -32 38 -12 22 -81 108 -133 165 -34 37 -127 165
-127 174 0 6 -7 14 -15 18 -16 10 -124 139 -165 198 -14 20 -47 61 -75 90 -63
69 -109 125 -182 224 -10 13 -31 38 -48 56 -51 55 -118 135 -134 159 -42 62
-57 83 -76 103 -95 102 -175 200 -175 214 0 4 -22 30 -50 58 -27 28 -50 54
-50 59 0 4 -12 19 -27 33 -37 34 -113 123 -133 157 -9 15 -24 33 -33 41 -10 7
-17 17 -17 22 0 5 -21 31 -47 58 -53 54 -100 110 -117 139 -23 40 -52 78 -96
124 -25 26 -58 63 -75 83 -16 20 -37 44 -46 53 -9 9 -22 28 -29 42 -7 14 -21
31 -32 38 -10 7 -18 19 -18 27 0 8 -8 20 -19 27 -17 12 -92 101 -173 205 -21
26 -55 68 -77 93 -68 77 -106 125 -168 209 -10 13 -31 38 -48 56 -55 60 -120
137 -129 153 -9 17 -25 36 -109 136 -77 91 -92 108 -114 133 -13 13 -29 36
-37 51 -8 15 -35 50 -60 77 -25 28 -56 62 -68 78 -13 15 -34 40 -48 56 -14 16
-36 46 -50 66 -23 34 -51 69 -99 120 -32 35 -135 162 -161 200 -21 30 -77 94
-148 170 -11 11 -25 31 -32 45 -13 26 -84 114 -129 162 -55 58 -70 75 -124
148 -31 41 -77 98 -102 125 -24 28 -62 73 -82 100 -75 100 -155 195 -164 195
-5 0 -9 6 -9 14 0 8 -9 21 -19 28 -11 8 -36 38 -56 68 -31 46 -100 132 -157
195 -33 36 -65 80 -78 105 -7 14 -21 34 -32 45 -37 40 -74 84 -98 120 -14 20
-37 52 -52 70 -16 18 -28 35 -28 39 0 3 -18 25 -41 48 -22 23 -48 56 -56 73
-9 16 -48 69 -87 117 -39 48 -82 103 -96 123 -14 20 -48 66 -77 103 -77 99
-89 115 -102 139 -10 21 -28 42 -82 98 -10 12 -19 24 -19 28 0 12 -73 111
-125 169 -27 31 -85 118 -85 129 0 5 -11 16 -25 25 -14 9 -25 22 -25 28 0 7
-11 23 -25 36 -14 13 -25 29 -25 35 0 12 -32 56 -83 117 -12 14 -33 42 -47 62
-37 55 -77 108 -100 136 -45 53 -80 103 -80 113 0 5 -12 24 -27 42 -55 65
-108 139 -122 172 -6 12 -19 27 -31 33 -11 6 -20 17 -20 24 0 7 -12 29 -27 49
-16 20 -39 52 -53 72 -14 20 -37 50 -52 66 -16 16 -28 37 -28 46 0 13 -30 55
-75 103 -7 9 -19 27 -24 40 -6 14 -27 45 -46 70 -19 25 -53 72 -74 105 -22 33
-51 73 -65 88 -14 15 -26 33 -26 38 0 6 -11 24 -25 41 -14 16 -25 35 -25 42 0
7 -10 22 -22 33 -13 11 -36 44 -53 73 -33 57 -95 130 -111 130 -6 0 -25 11
-44 25 -29 22 -44 25 -109 24 -64 -1 -84 -5 -131 -31z m176 -2741 c3 -12 14
-31 24 -42 10 -11 24 -32 31 -47 16 -31 81 -110 122 -147 15 -14 27 -31 27
-37 0 -6 7 -18 16 -25 9 -8 27 -30 39 -49 13 -19 41 -55 63 -80 22 -25 51 -57
64 -73 13 -15 35 -41 51 -57 15 -17 27 -34 27 -39 0 -10 45 -69 105 -136 62
-71 90 -106 104 -133 13 -24 29 -45 67 -85 43 -45 121 -143 134 -167 7 -14 21
-31 32 -38 10 -7 18 -19 18 -25 0 -7 12 -24 28 -39 15 -14 33 -33 41 -43 25
-32 76 -100 93 -125 9 -14 42 -52 73 -85 51 -54 92 -107 121 -156 12 -20 84
-107 124 -148 14 -14 41 -49 60 -77 33 -48 99 -130 145 -178 11 -11 25 -28 30
-38 24 -42 73 -106 110 -144 22 -23 50 -55 63 -70 37 -48 126 -165 137 -181 6
-8 30 -37 55 -64 25 -26 74 -87 109 -135 35 -47 70 -88 78 -91 7 -3 13 -10 13
-16 0 -7 11 -23 25 -37 14 -14 52 -60 84 -103 32 -42 78 -100 102 -129 74 -86
87 -101 123 -148 43 -56 74 -93 106 -131 70 -81 130 -159 130 -168 0 -3 24
-32 53 -63 28 -31 63 -70 77 -86 14 -17 36 -44 50 -60 14 -17 36 -46 50 -67
14 -20 37 -49 51 -65 44 -47 165 -194 175 -212 9 -15 66 -83 147 -171 21 -23
47 -58 57 -77 10 -19 38 -56 62 -82 95 -104 140 -157 198 -233 33 -44 80 -102
105 -130 103 -114 120 -133 170 -200 29 -38 73 -91 97 -117 23 -26 51 -58 60
-70 67 -89 89 -116 112 -139 14 -15 26 -31 26 -37 0 -6 6 -15 14 -19 15 -9
114 -126 161 -192 17 -23 53 -66 80 -95 74 -80 137 -153 155 -184 9 -15 24
-33 33 -41 10 -7 17 -17 17 -22 0 -5 21 -32 48 -59 83 -87 135 -148 150 -177
8 -15 24 -38 36 -50 12 -12 31 -35 44 -50 21 -25 51 -60 101 -118 10 -11 23
-30 30 -43 7 -13 19 -32 28 -42 22 -26 81 -92 102 -115 10 -11 44 -54 74 -95
62 -84 81 -107 133 -165 20 -22 58 -69 85 -105 26 -36 54 -72 62 -80 27 -27
132 -158 157 -195 28 -41 64 -86 95 -119 12 -11 28 -32 38 -46 9 -14 33 -45
52 -70 19 -25 39 -55 45 -67 5 -13 13 -23 18 -23 10 0 118 -130 135 -163 7
-12 21 -32 32 -45 50 -55 125 -153 125 -163 0 -4 24 -37 53 -73 28 -36 63 -81
77 -101 44 -63 79 -110 96 -127 8 -9 31 -40 49 -70 18 -29 42 -64 54 -78 11
-14 33 -41 48 -62 25 -32 36 -49 79 -121 6 -10 21 -25 33 -33 11 -8 21 -20 21
-26 0 -6 11 -25 24 -42 13 -17 26 -41 30 -53 4 -13 11 -23 17 -23 8 0 38 -40
84 -115 11 -17 34 -51 50 -75 17 -23 37 -57 46 -74 9 -17 26 -40 38 -50 12
-11 21 -24 21 -31 0 -7 9 -20 19 -29 11 -10 23 -31 26 -47 4 -16 15 -34 26
-39 10 -6 26 -25 35 -43 27 -57 50 -94 77 -127 15 -17 27 -36 27 -42 0 -13 66
-114 79 -123 5 -3 12 -19 16 -35 4 -17 15 -36 25 -43 10 -7 25 -28 34 -47 24
-50 67 -124 75 -130 4 -3 13 -20 19 -39 7 -19 21 -40 31 -47 10 -8 22 -29 25
-48 4 -20 13 -39 20 -43 7 -5 23 -28 35 -53 36 -74 53 -104 71 -125 10 -11 21
-33 24 -50 4 -16 16 -38 26 -47 11 -10 22 -34 26 -53 3 -20 14 -41 24 -48 10
-7 22 -26 26 -42 4 -17 18 -43 31 -58 12 -16 23 -39 23 -51 0 -13 11 -35 25
-50 14 -15 25 -35 25 -46 0 -10 11 -31 24 -47 13 -15 27 -42 30 -60 4 -17 14
-37 22 -43 7 -7 19 -31 25 -54 6 -22 19 -49 29 -58 10 -9 21 -36 25 -58 4 -23
13 -44 21 -47 8 -3 21 -28 29 -56 8 -28 21 -57 29 -66 8 -9 19 -35 25 -57 6
-23 18 -47 26 -54 8 -7 18 -30 21 -51 4 -21 17 -53 30 -71 13 -17 24 -43 24
-56 0 -14 10 -40 21 -59 12 -20 26 -55 30 -80 5 -24 18 -56 29 -70 11 -14 20
-36 20 -49 0 -29 18 -77 32 -85 6 -4 14 -31 19 -60 5 -29 18 -66 29 -81 11
-15 23 -49 26 -75 3 -27 15 -60 25 -75 11 -15 22 -49 25 -75 4 -27 15 -62 25
-78 10 -17 23 -62 29 -100 6 -38 18 -77 26 -86 8 -9 18 -48 23 -88 5 -39 16
-83 25 -96 9 -13 21 -57 27 -97 6 -40 18 -86 27 -103 9 -16 19 -61 22 -100 4
-38 16 -90 27 -115 12 -26 23 -80 28 -129 4 -47 15 -105 24 -130 11 -27 21
-90 25 -151 4 -58 16 -134 26 -170 13 -43 23 -121 29 -230 5 -91 15 -178 21
-195 33 -82 36 -903 5 -1111 -9 -54 -20 -188 -26 -296 -5 -112 -16 -219 -25
-250 -8 -29 -21 -114 -29 -188 -7 -74 -20 -151 -28 -170 -8 -19 -20 -79 -25
-132 -6 -54 -18 -107 -26 -121 -9 -13 -19 -57 -22 -103 -4 -50 -13 -91 -26
-113 -11 -19 -23 -67 -27 -106 -5 -40 -16 -83 -25 -98 -10 -14 -22 -56 -27
-93 -5 -37 -16 -76 -25 -85 -8 -9 -20 -48 -25 -85 -5 -37 -16 -75 -24 -84 -8
-9 -20 -42 -26 -74 -5 -31 -18 -71 -29 -89 -10 -18 -21 -52 -25 -77 -4 -25
-14 -52 -22 -61 -8 -10 -20 -40 -28 -69 -8 -29 -20 -59 -29 -69 -8 -9 -17 -34
-21 -56 -4 -22 -15 -52 -26 -67 -10 -15 -23 -47 -29 -72 -5 -26 -19 -55 -30
-66 -11 -11 -20 -33 -20 -48 0 -15 -11 -43 -25 -62 -14 -19 -25 -44 -25 -56 0
-13 -11 -34 -24 -49 -13 -14 -26 -43 -30 -64 -3 -21 -12 -44 -20 -50 -8 -7
-22 -34 -31 -61 -9 -27 -22 -54 -30 -60 -8 -6 -17 -24 -20 -40 -3 -16 -13 -34
-20 -40 -8 -6 -19 -28 -26 -48 -6 -20 -20 -46 -29 -57 -10 -11 -22 -32 -25
-47 -4 -14 -15 -34 -26 -44 -10 -9 -21 -31 -25 -49 -3 -18 -17 -42 -30 -54
-13 -11 -24 -30 -24 -41 0 -12 -11 -31 -24 -43 -14 -13 -28 -35 -31 -49 -4
-15 -15 -34 -26 -44 -10 -9 -19 -23 -19 -31 0 -8 -11 -25 -24 -38 -14 -13 -28
-35 -32 -47 -4 -13 -17 -36 -30 -51 -13 -16 -24 -35 -24 -43 0 -8 -7 -17 -15
-20 -8 -4 -23 -25 -33 -48 -10 -22 -26 -47 -35 -55 -10 -7 -17 -18 -17 -24 0
-5 -9 -19 -21 -31 -12 -12 -36 -46 -55 -76 -18 -30 -43 -66 -54 -80 -50 -61
-70 -89 -70 -99 0 -5 -12 -24 -27 -40 -16 -16 -53 -64 -83 -106 -30 -42 -65
-86 -77 -98 -13 -11 -23 -24 -23 -29 0 -4 -18 -27 -40 -49 -22 -23 -61 -69
-86 -103 -76 -101 -116 -145 -444 -474 -174 -174 -363 -356 -420 -404 -58 -49
-117 -98 -131 -110 -15 -13 -51 -43 -80 -68 -29 -25 -66 -57 -82 -72 -17 -16
-33 -28 -37 -28 -14 0 -131 -92 -169 -132 -14 -16 -30 -28 -35 -28 -5 0 -24
-11 -42 -25 -18 -14 -36 -25 -39 -25 -4 0 -30 -20 -58 -44 -29 -24 -67 -51
-85 -60 -18 -9 -42 -25 -52 -34 -35 -32 -67 -55 -97 -71 -17 -9 -49 -29 -73
-46 -69 -48 -122 -83 -162 -105 -21 -11 -38 -24 -38 -29 0 -4 -18 -13 -40 -20
-22 -6 -44 -20 -50 -30 -5 -10 -21 -22 -34 -25 -26 -6 -79 -38 -128 -75 -14
-12 -33 -21 -41 -21 -9 0 -28 -11 -44 -23 -15 -13 -42 -29 -60 -35 -17 -6 -41
-20 -52 -31 -12 -12 -32 -21 -45 -21 -12 0 -35 -11 -49 -24 -14 -13 -39 -27
-56 -31 -16 -3 -37 -15 -47 -26 -9 -10 -24 -19 -33 -19 -9 0 -32 -11 -51 -23
-19 -13 -47 -27 -62 -30 -15 -4 -34 -14 -42 -22 -9 -9 -38 -23 -65 -31 -27 -8
-51 -20 -54 -28 -3 -7 -22 -17 -43 -21 -21 -3 -51 -18 -67 -31 -16 -13 -39
-24 -51 -24 -13 0 -33 -9 -46 -20 -12 -11 -39 -22 -59 -26 -20 -4 -45 -15 -56
-24 -11 -10 -33 -22 -50 -26 -16 -4 -48 -17 -70 -29 -22 -13 -55 -25 -73 -29
-19 -3 -45 -15 -59 -26 -14 -11 -38 -20 -52 -20 -15 0 -42 -11 -60 -24 -18
-14 -55 -27 -82 -31 -28 -4 -53 -14 -58 -22 -4 -8 -32 -20 -62 -25 -30 -5 -67
-18 -84 -28 -16 -10 -48 -22 -70 -26 -22 -4 -60 -18 -84 -31 -24 -12 -57 -23
-74 -23 -16 0 -44 -9 -62 -20 -17 -11 -58 -22 -91 -26 -34 -3 -71 -14 -88 -26
-16 -12 -55 -24 -92 -28 -36 -5 -76 -16 -91 -25 -14 -10 -57 -21 -95 -26 -39
-5 -84 -17 -102 -28 -19 -11 -59 -21 -102 -24 -43 -3 -84 -13 -105 -25 -22
-13 -63 -22 -119 -26 -46 -4 -98 -14 -115 -22 -16 -8 -68 -20 -115 -26 -47 -5
-103 -18 -125 -28 -25 -11 -80 -21 -145 -25 -58 -4 -123 -13 -145 -20 -70 -23
-95 -26 -245 -34 -81 -5 -156 -14 -168 -20 -49 -26 -261 -32 -1042 -28 -713 3
-801 5 -850 20 -33 11 -120 21 -220 27 -181 11 -229 17 -247 32 -6 5 -56 13
-110 18 -127 12 -169 19 -208 35 -17 8 -71 17 -121 21 -51 4 -104 14 -124 24
-19 10 -73 21 -120 25 -59 5 -93 13 -112 27 -19 13 -55 22 -108 27 -52 6 -87
15 -99 25 -11 10 -48 20 -95 25 -42 5 -88 16 -102 26 -14 9 -56 21 -92 26 -36
5 -74 17 -83 25 -10 9 -47 19 -82 24 -37 4 -77 16 -93 28 -16 11 -51 23 -78
26 -27 3 -63 15 -80 25 -17 11 -49 22 -71 26 -22 4 -54 16 -70 26 -17 10 -51
21 -75 25 -25 4 -54 15 -65 25 -11 10 -39 21 -62 25 -24 3 -57 17 -75 30 -17
13 -44 24 -58 24 -14 0 -41 11 -60 25 -19 14 -47 25 -66 25 -17 0 -43 10 -58
21 -15 12 -46 26 -69 31 -23 5 -51 17 -62 28 -11 10 -36 21 -55 25 -19 4 -44
15 -55 25 -11 10 -36 20 -56 24 -20 3 -44 15 -53 25 -9 10 -31 22 -49 25 -17
3 -40 15 -52 25 -11 11 -39 24 -61 30 -23 6 -44 17 -47 25 -3 7 -25 18 -50 24
-25 7 -47 18 -50 26 -3 8 -21 17 -39 21 -18 4 -46 18 -61 31 -16 13 -37 24
-47 24 -10 0 -32 11 -48 25 -17 14 -37 25 -45 25 -9 0 -28 11 -44 24 -16 14
-41 28 -55 31 -15 4 -34 15 -44 26 -9 10 -22 19 -29 19 -6 0 -26 11 -44 24
-19 14 -46 28 -62 31 -16 4 -34 15 -39 25 -6 10 -20 22 -32 25 -28 9 -120 68
-137 89 -7 8 -26 18 -42 21 -16 4 -29 11 -29 16 0 5 -18 18 -40 29 -22 11 -40
24 -40 29 0 5 -14 14 -31 20 -31 11 -75 41 -112 77 -12 12 -32 24 -44 28 -13
4 -52 31 -87 59 -35 29 -82 63 -105 77 -23 14 -61 42 -84 63 -23 21 -69 57
-102 79 -52 36 -128 96 -200 161 -11 9 -34 30 -51 45 -17 15 -48 41 -68 57
-58 46 -109 88 -134 110 -29 26 -717 714 -740 740 -16 19 -105 127 -154 189
-13 16 -33 38 -44 50 -30 30 -134 158 -164 201 -23 33 -44 60 -97 120 -25 29
-83 116 -83 125 0 5 -8 15 -18 22 -17 13 -30 29 -82 108 -52 79 -65 95 -82
108 -10 7 -18 19 -18 26 0 7 -13 30 -30 51 -16 21 -30 44 -30 52 0 7 -7 16
-16 20 -9 3 -24 24 -35 47 -10 23 -32 59 -48 81 -17 22 -39 58 -50 80 -10 22
-26 46 -35 54 -9 7 -16 19 -16 27 0 7 -7 19 -15 28 -8 8 -24 35 -35 60 -10 25
-24 46 -29 46 -6 0 -15 17 -21 38 -5 22 -18 47 -29 56 -10 10 -22 32 -25 50
-4 18 -15 41 -26 51 -10 9 -22 31 -26 49 -4 17 -17 41 -30 53 -15 13 -24 33
-24 51 0 17 -10 38 -25 52 -16 15 -25 34 -25 53 0 19 -9 38 -25 53 -16 15 -25
34 -25 53 0 17 -9 38 -19 48 -11 10 -24 38 -30 61 -5 24 -17 52 -26 62 -9 10
-21 37 -26 60 -5 23 -18 53 -28 68 -11 15 -22 48 -26 74 -3 26 -14 57 -24 70
-10 13 -21 43 -25 68 -4 24 -15 58 -26 75 -11 17 -22 51 -26 75 -4 25 -17 63
-29 85 -13 22 -25 63 -28 90 -3 28 -15 68 -26 90 -12 23 -21 58 -21 85 0 27
-9 61 -21 85 -12 23 -25 72 -30 114 -5 40 -16 85 -25 99 -11 16 -20 61 -25
115 -5 49 -16 103 -24 120 -9 18 -21 82 -26 147 -6 63 -17 129 -26 145 -9 19
-18 83 -24 172 -5 78 -16 171 -24 206 -29 127 -38 309 -38 827 1 544 12 840
33 880 7 13 18 102 25 199 8 106 19 190 28 211 8 19 18 78 22 130 5 54 16 117
27 145 12 30 23 92 28 156 5 73 13 114 25 133 10 15 21 59 25 105 5 46 17 96
29 119 13 25 21 60 21 89 0 31 8 64 24 93 13 25 26 71 29 102 3 32 14 69 25
85 11 15 23 52 26 81 4 29 15 70 26 90 10 20 21 57 25 81 4 24 18 64 31 89 13
25 24 62 24 82 0 23 8 48 21 63 11 15 24 49 28 77 4 28 15 58 24 68 9 10 19
38 23 62 3 25 16 61 29 80 12 19 25 52 28 72 3 20 14 49 25 65 11 15 23 45 27
67 3 21 15 50 25 65 10 14 21 42 24 62 4 21 15 48 25 60 10 13 22 40 26 59 4
19 15 44 25 55 10 11 22 37 25 58 4 21 15 46 25 55 10 9 20 33 24 53 3 20 15
44 26 54 11 10 23 35 26 56 4 21 17 53 30 71 13 17 24 39 24 48 0 9 11 31 25
50 14 19 25 41 25 50 0 9 11 31 24 49 14 19 28 46 31 62 4 15 13 33 20 39 8 6
19 28 26 48 6 20 19 48 29 62 9 14 22 40 29 58 8 17 17 32 21 32 5 0 14 17 21
38 6 20 22 50 35 65 13 16 24 36 24 46 0 10 11 28 24 40 13 13 27 38 30 57 4
19 11 34 17 34 5 0 17 17 26 37 8 21 24 48 34 62 10 13 19 31 19 41 0 9 9 25
20 35 10 9 24 33 30 51 7 19 20 39 30 44 10 5 22 24 26 42 3 18 15 44 26 58
30 39 68 100 68 109 0 5 14 25 30 46 17 21 30 42 30 47 0 6 11 23 25 40 14 16
25 35 25 42 0 7 11 22 25 34 14 12 25 28 25 36 0 8 11 28 25 44 14 17 25 35
25 40 0 6 11 23 25 38 14 15 25 33 25 40 0 8 9 23 19 33 11 11 27 34 36 50 8
17 19 31 24 31 5 0 14 14 20 31 9 27 38 68 85 119 8 8 21 32 29 53 9 20 20 37
25 37 5 0 14 12 21 27 7 15 21 33 32 41 10 7 19 19 19 27 0 7 11 27 25 43 14
17 25 35 25 40 0 6 11 19 25 30 14 11 25 24 25 28 1 19 76 125 126 177 12 12
24 32 28 44 6 19 33 57 87 123 22 27 60 79 99 135 14 20 36 50 50 65 33 38 57
69 78 101 38 58 58 85 82 111 45 47 57 63 69 86 7 13 19 31 27 40 32 36 130
163 154 197 14 21 37 51 52 69 15 17 37 43 50 59 13 15 35 41 50 57 16 17 28
34 28 39 0 8 47 72 74 101 15 16 112 135 164 202 34 44 97 118 142 168 14 16
36 45 50 65 43 62 112 145 121 145 5 0 9 6 9 14 0 8 10 22 21 30 12 8 29 26
38 39 9 13 28 42 42 63 15 22 45 58 68 82 22 23 41 45 41 48 0 4 10 17 23 30
25 26 52 59 102 124 48 63 73 92 125 147 42 44 57 64 101 129 20 30 92 114
149 173 25 26 52 56 60 68 30 42 113 149 131 168 10 11 40 43 66 70 48 51 72
81 108 139 21 33 24 37 108 128 28 31 68 80 87 107 19 28 38 50 42 51 4 0 14
12 22 28 8 15 44 59 80 97 36 39 92 105 123 148 32 44 69 91 83 106 14 15 45
50 70 77 25 27 54 63 65 81 22 34 74 98 120 148 58 63 119 136 135 163 9 15
24 33 33 41 10 7 17 18 17 23 0 6 12 22 28 37 40 39 104 116 172 206 32 44 81
104 107 133 67 74 73 82 115 137 44 61 74 96 113 139 58 63 110 128 125 155
16 30 24 40 88 109 24 26 63 74 87 107 23 33 59 78 80 100 20 22 44 51 53 65
9 14 25 31 34 38 10 7 18 18 18 24 0 6 14 27 30 47 17 20 39 47 50 61 11 14
39 45 62 70 23 25 72 85 110 135 37 49 88 111 113 137 25 26 45 52 45 57 0 6
8 16 19 23 10 7 26 27 35 43 27 48 65 97 86 112 11 8 20 21 20 29 0 8 4 14 9
14 9 0 49 49 121 147 19 26 43 54 52 61 10 7 18 18 18 24 0 5 12 23 28 38 33
34 60 69 76 98 12 22 68 88 139 166 22 22 46 52 55 66 26 39 75 103 97 126 48
51 111 128 123 150 7 13 17 24 22 24 5 0 11 8 14 18 6 17 21 35 112 138 43 49
58 68 105 142 12 17 25 32 30 32 5 0 12 8 16 18 3 9 27 38 52 63 25 25 53 57
61 71 33 57 70 105 111 150 24 25 55 61 69 79 14 17 32 39 40 48 8 9 32 39 53
66 20 28 47 62 60 77 12 15 33 40 47 57 14 16 31 36 38 45 15 19 39 11 48 -17z"/>
<path d="M14683 18901 c-28 -3 -60 -14 -70 -23 -10 -8 -29 -19 -42 -23 -14 -4
-52 -36 -85 -71 -87 -91 -106 -115 -106 -135 0 -10 -9 -41 -20 -69 -20 -50
-20 -78 -20 -6058 0 -5884 0 -6007 19 -6010 18 -3 72 28 119 68 13 11 33 20
43 20 11 0 30 11 42 24 12 13 33 27 46 31 24 7 77 39 121 73 14 11 36 23 50
27 14 4 35 18 47 31 12 13 28 24 36 24 8 0 22 9 31 19 10 11 31 23 46 26 16 3
36 17 44 31 9 13 22 24 30 24 7 0 21 9 31 20 10 11 27 22 39 26 18 6 57 34
106 78 8 7 24 18 36 24 12 6 63 45 115 87 193 155 219 175 225 175 4 0 31 24
59 53 29 28 66 63 82 77 201 172 403 372 618 613 28 31 73 81 100 110 53 57
55 60 141 177 31 41 65 83 77 93 21 18 24 23 62 87 11 18 32 47 48 63 15 17
27 34 27 38 0 4 10 19 23 32 12 13 37 50 56 81 19 31 42 61 53 67 10 5 18 17
18 25 0 9 11 29 25 46 14 16 25 35 25 42 0 7 9 21 21 32 19 17 36 44 80 126 8
17 23 34 31 39 9 5 19 24 22 42 3 19 17 43 31 55 14 12 25 30 25 39 0 9 12 35
28 57 l27 39 3 4571 c1 2830 -1 4597 -7 4640 -6 43 -17 76 -29 90 -11 11 -22
32 -26 46 -5 22 -42 65 -108 126 -13 12 -36 25 -52 28 -16 4 -37 17 -46 29
l-18 22 -1114 1 c-612 1 -1136 -1 -1165 -5z"/>
<path d="M10920 15273 c-25 -6 -61 -12 -81 -12 -24 -1 -45 -10 -63 -26 -15
-14 -33 -25 -40 -25 -12 0 -63 -38 -87 -65 -36 -40 -69 -91 -69 -105 0 -10
-10 -30 -22 -46 l-23 -29 0 -4615 0 -4615 160 -9 c388 -21 1141 -4 1201 27 20
10 85 19 190 26 101 6 174 16 198 26 21 9 84 20 141 25 67 6 118 16 142 28 21
11 70 22 111 25 44 4 85 13 100 23 15 10 64 23 111 30 46 7 87 17 91 24 9 14
72 29 121 30 21 0 47 9 63 21 15 12 46 23 69 26 23 2 60 13 82 23 22 10 48 21
58 24 16 5 17 226 17 4449 l0 4443 -25 34 c-14 19 -25 41 -25 49 0 22 -110
138 -152 161 -62 35 -73 38 -158 50 -122 16 -2047 20 -2110 3z"/>
<path d="M7020 12475 c-14 -8 -43 -24 -65 -35 -55 -29 -108 -68 -119 -88 -5
-9 -16 -21 -24 -26 -7 -4 -21 -22 -29 -40 -8 -17 -23 -47 -34 -66 -19 -34 -19
-92 -19 -2511 l0 -2476 67 -59 c36 -33 77 -69 90 -81 13 -13 27 -23 31 -23 9
0 89 -62 117 -90 12 -11 26 -20 33 -20 6 0 19 -11 28 -25 9 -14 21 -25 28 -25
14 0 94 -52 121 -78 11 -11 31 -23 45 -27 23 -7 38 -17 108 -72 16 -12 40 -25
54 -28 14 -4 35 -18 47 -31 11 -13 29 -24 39 -24 10 0 33 -11 52 -25 19 -14
39 -25 45 -25 7 0 19 -8 29 -18 9 -11 34 -24 57 -31 22 -7 43 -18 45 -26 3 -8
21 -17 39 -21 18 -3 43 -17 56 -30 12 -13 32 -24 44 -24 12 0 36 -11 54 -24
18 -13 48 -27 67 -31 19 -3 38 -13 41 -21 3 -8 25 -19 49 -25 24 -6 53 -19 64
-29 11 -10 36 -21 56 -24 19 -4 51 -18 71 -32 20 -13 49 -24 64 -24 17 0 37
-9 46 -20 11 -12 36 -22 65 -26 26 -4 62 -17 80 -30 17 -13 46 -24 63 -24 17
0 46 -11 63 -24 18 -13 54 -26 82 -30 27 -4 56 -14 65 -22 8 -9 45 -20 82 -25
36 -5 80 -18 97 -28 17 -10 60 -21 95 -25 35 -3 78 -14 95 -25 17 -10 59 -21
94 -25 34 -3 79 -14 100 -24 49 -25 125 -35 143 -19 12 10 13 479 9 3142 l-5
3130 -33 60 c-50 91 -168 205 -227 219 -16 4 -38 15 -49 24 -17 16 -105 17
-1105 19 -940 3 -1089 1 -1111 -12z"/>
</g>
</svg>
